<svg xmlns="http://www.w3.org/2000/svg" xmlns:xlink="http://www.w3.org/1999/xlink" width="108" height="108" viewBox="0 0 108 108">
  <defs>
    <filter id="Rectangle_411831" x="0" y="0" width="108" height="108" filterUnits="userSpaceOnUse">
      <feOffset dy="3" input="SourceAlpha"/>
      <feGaussianBlur stdDeviation="3" result="blur"/>
      <feFlood flood-opacity="0.161"/>
      <feComposite operator="in" in2="blur"/>
      <feComposite in="SourceGraphic"/>
    </filter>
    <clipPath id="clip-path">
      <rect id="Rectangle_436303" data-name="Rectangle 436303" width="57" height="58" transform="translate(235 -10986)" fill="#fff" stroke="#707070" stroke-width="1" opacity="0"/>
    </clipPath>
    <clipPath id="clip-path-2">
      <path id="path8322" d="M0-57H57V0H0Z"/>
    </clipPath>
  </defs>
  <g id="Group_1260442" data-name="Group 1260442" transform="translate(-209.179 11008)">
    <g id="Group_1260438" data-name="Group 1260438" transform="translate(218.179 -11002)">
      <g transform="matrix(1, 0, 0, 1, -9, -6)" filter="url(#Rectangle_411831)">
        <g id="Rectangle_411831-2" data-name="Rectangle 411831" transform="translate(9 6)" fill="#e8de49" stroke="#fff" stroke-width="2">
          <path d="M5,0H58A32,32,0,0,1,90,32V85a5,5,0,0,1-5,5H32A32,32,0,0,1,0,58V5A5,5,0,0,1,5,0Z" stroke="none"/>
          <path d="M5,1H58A31,31,0,0,1,89,32V85a4,4,0,0,1-4,4H32A31,31,0,0,1,1,58V5A4,4,0,0,1,5,1Z" fill="none"/>
        </g>
      </g>
    </g>
    <g id="Mask_Group_1099722" data-name="Mask Group 1099722" clip-path="url(#clip-path)">
      <g id="g8316" transform="translate(235 -10928.5)">
        <g id="g8318">
          <g id="g8320" clip-path="url(#clip-path-2)">
            <g id="g8326" transform="translate(47.07 -56.165)">
              <path id="path8328" d="M0,0H-37.139A3.563,3.563,0,0,0-40.7,3.563V51.768a3.563,3.563,0,0,0,3.563,3.563h1.971l4.611-1.844,4.611,1.844h14.755l4.611-1.844,4.611,1.844H0a3.563,3.563,0,0,0,3.563-3.562V3.563A3.563,3.563,0,0,0,0,0" fill="#f03747"/>
            </g>
            <g id="g8330" transform="translate(45.162 -15.59)">
              <path id="path8332" d="M0,0H-33.324a1.781,1.781,0,0,1-1.781-1.781V-24.04a1.781,1.781,0,0,1,1.781-1.781H0A1.781,1.781,0,0,1,1.781-24.04V-1.781A1.781,1.781,0,0,1,0,0" fill="#b9385d"/>
            </g>
            <g id="g8334" transform="translate(32.189 -8.212)">
              <path id="path8336" d="M0,0A3.689,3.689,0,0,0-3.689-3.689,3.689,3.689,0,0,0-7.377,0,3.689,3.689,0,0,0-3.689,3.689,3.689,3.689,0,0,0,0,0" fill="#b9385d"/>
            </g>
            <g id="g8338" transform="translate(43.255 -36.831)">
              <path id="path8340" d="M0,0A.891.891,0,0,0-.891-.891H-28.619A.891.891,0,0,0-29.509,0V10.175l11.066,7.377h7.377L0,10.175Z" fill="#7a6d79"/>
            </g>
            <g id="g8342" transform="translate(40.694 -36.831)">
              <path id="path8344" d="M0,0V11.882l2.561-1.707V0A.891.891,0,0,0,1.67-.891H-.891A.891.891,0,0,1,0,0" fill="#554e56"/>
            </g>
            <g id="g8346" transform="translate(24.811 -19.278)">
              <path id="path8348" d="M0,0-7.377-7.377v-4.611a.922.922,0,0,1,.922-.922H13.833a.922.922,0,0,1,.922.922v4.611L7.377,0Z" fill="#fbf3f3"/>
            </g>
            <g id="g8350" transform="translate(38.644 -32.189)">
              <path id="path8352" d="M0,0H-2.561a.922.922,0,0,1,.922.922V8.094L.922,5.533V.922A.922.922,0,0,0,0,0" fill="#e8e3f0"/>
            </g>
            <g id="g8354" transform="translate(47.07 -56.165)">
              <path id="path8356" d="M0,0H-2.561A3.563,3.563,0,0,1,1,3.563V51.768A3.563,3.563,0,0,1-2.561,55.33H0a3.563,3.563,0,0,0,3.563-3.562V3.563A3.563,3.563,0,0,0,0,0" fill="#b9385d"/>
            </g>
            <g id="g8358" transform="translate(45.162 -41.41)">
              <path id="path8360" d="M0,0H-2.561A1.781,1.781,0,0,1-.779,1.781V24.04a1.781,1.781,0,0,1-1.781,1.781H0A1.781,1.781,0,0,0,1.781,24.04V1.781A1.781,1.781,0,0,0,0,0" fill="#9e2950"/>
            </g>
            <g id="g8362" transform="translate(42.364 -19.278)">
              <path id="path8364" d="M0,0A.891.891,0,0,0,.891-.891V-7.377H-9.253a.922.922,0,0,0-.922.922V0Z" fill="#f03747"/>
            </g>
            <g id="g8366" transform="translate(23.889 -26.656)">
              <path id="path8368" d="M0,0H-10.144V6.487a.891.891,0,0,0,.891.891H.922V.922A.922.922,0,0,0,0,0" fill="#f03747"/>
            </g>
            <g id="g8370" transform="translate(28.5 -11.901)">
              <path id="path8372" d="M0,0A3.681,3.681,0,0,0-1.28.229a3.69,3.69,0,0,1,2.408,3.46A3.69,3.69,0,0,1-1.28,7.149,3.681,3.681,0,0,0,0,7.377,3.689,3.689,0,0,0,3.689,3.689,3.689,3.689,0,0,0,0,0" fill="#9e2950"/>
            </g>
            <g id="g8374" transform="translate(11.901 -0.835)">
              <path id="path8376" d="M0,0,.573-2.292a1.844,1.844,0,0,1,1.789-1.4h4.5a1.844,1.844,0,0,1,1.789,1.4L9.222,0Z" fill="#b9385d"/>
            </g>
            <g id="g8378" transform="translate(35.877 -0.835)">
              <path id="path8380" d="M0,0,.573-2.292a1.844,1.844,0,0,1,1.789-1.4h4.5a1.845,1.845,0,0,1,1.789,1.4L9.222,0Z" fill="#b9385d"/>
            </g>
            <g id="g8382" transform="translate(44.526 -3.127)">
              <path id="path8384" d="M0,0A1.844,1.844,0,0,0-1.789-1.4H-4.35A1.844,1.844,0,0,1-2.561,0l.573,2.292H.573Z" fill="#9e2950"/>
            </g>
            <g id="g8386" transform="translate(20.55 -3.127)">
              <path id="path8388" d="M0,0A1.844,1.844,0,0,0-1.789-1.4H-4.35A1.844,1.844,0,0,1-2.561,0l.573,2.292H.573Z" fill="#9e2950"/>
            </g>
            <g id="g8390" transform="translate(40.694 -20.169)">
              <path id="path8392" d="M0,0A.891.891,0,0,1-.891.891H1.67A.891.891,0,0,0,2.561,0V-6.487H0Z" fill="#9e2950"/>
            </g>
            <g id="g8394" transform="translate(6.368 -49.796)">
              <path id="path8396" d="M0,0V-2.806A3.563,3.563,0,0,1,3.563-6.369H40.7a3.563,3.563,0,0,1,3.563,3.563V45.4A3.563,3.563,0,0,1,40.7,48.961H3.563A3.563,3.563,0,0,1,0,45.4V3.33" fill="none" stroke="#000" stroke-linecap="round" stroke-linejoin="round" stroke-miterlimit="10" stroke-width="1.67"/>
            </g>
            <g id="g8398" transform="translate(13.739 -15.59)">
              <path id="path8400" d="M0,0H-1.9A1.781,1.781,0,0,1-3.682-1.781V-24.04A1.781,1.781,0,0,1-1.9-25.821H31.423A1.781,1.781,0,0,1,33.2-24.04V-1.781A1.781,1.781,0,0,1,31.423,0H3.34" fill="none" stroke="#000" stroke-linecap="round" stroke-linejoin="round" stroke-miterlimit="10" stroke-width="1.67"/>
            </g>
            <g id="g8402" transform="translate(32.189 -8.212)">
              <path id="path8404" d="M0,0A3.689,3.689,0,0,0-3.689-3.689,3.689,3.689,0,0,0-7.377,0,3.689,3.689,0,0,0-3.689,3.689,3.689,3.689,0,0,0,0,0Z" fill="none" stroke="#000" stroke-linecap="round" stroke-linejoin="round" stroke-miterlimit="10" stroke-width="1.67"/>
            </g>
            <g id="g8406" transform="translate(28.039 -8.212)">
              <path id="path8408" d="M0,0H.922" fill="none" stroke="#000" stroke-linecap="round" stroke-linejoin="round" stroke-miterlimit="10" stroke-width="1.67"/>
            </g>
            <g id="g8410" transform="translate(11.901 -0.835)">
              <path id="path8412" d="M0,0,.573-2.292a1.844,1.844,0,0,1,1.789-1.4h4.5a1.844,1.844,0,0,1,1.789,1.4L9.222,0" fill="none" stroke="#000" stroke-linecap="round" stroke-linejoin="round" stroke-miterlimit="10" stroke-width="1.67"/>
            </g>
            <g id="g8414" transform="translate(35.877 -0.835)">
              <path id="path8416" d="M0,0,.573-2.292a1.844,1.844,0,0,1,1.789-1.4h4.5a1.845,1.845,0,0,1,1.789,1.4L9.222,0" fill="none" stroke="#000" stroke-linecap="round" stroke-linejoin="round" stroke-miterlimit="10" stroke-width="1.67"/>
            </g>
            <g id="g8418" transform="translate(24.466 -52.476)">
              <path id="path8420" d="M0,0V7.377" fill="none" stroke="#000" stroke-linecap="round" stroke-linejoin="round" stroke-miterlimit="10" stroke-width="1.67"/>
            </g>
            <g id="g8422" transform="translate(20.402 -52.422)">
              <path id="path8424" d="M0,0H-2.968V7.323" fill="none" stroke="#000" stroke-linecap="round" stroke-linejoin="round" stroke-miterlimit="10" stroke-width="1.67"/>
            </g>
            <g id="g8426" transform="translate(17.434 -48.83)">
              <path id="path8428" d="M0,0H2.732" fill="none" stroke="#000" stroke-linecap="round" stroke-linejoin="round" stroke-miterlimit="10" stroke-width="1.67"/>
            </g>
            <g id="g8430" transform="translate(39.566 -52.409)">
              <path id="path8432" d="M0,0H-3.08V7.31H0" fill="none" stroke="#000" stroke-linecap="round" stroke-linejoin="round" stroke-miterlimit="10" stroke-width="1.67"/>
            </g>
            <g id="g8434" transform="translate(39.339 -48.754)">
              <path id="path8436" d="M0,0H-2.853" fill="none" stroke="#000" stroke-linecap="round" stroke-linejoin="round" stroke-miterlimit="10" stroke-width="1.67"/>
            </g>
            <g id="g8438" transform="translate(29.392 -48.62)">
              <path id="path8440" d="M0,0,3.1,3.521" fill="none" stroke="#000" stroke-linecap="round" stroke-linejoin="round" stroke-miterlimit="10" stroke-width="1.67"/>
            </g>
            <g id="g8442" transform="translate(28.502 -52.476)">
              <path id="path8444" d="M0,0V7.377" fill="none" stroke="#000" stroke-linecap="round" stroke-linejoin="round" stroke-miterlimit="10" stroke-width="1.67"/>
            </g>
            <g id="g8446" transform="translate(32.491 -50.559)">
              <path id="path8448" d="M0,0A1.988,1.988,0,0,1-2.026,1.917c-.544,0-1.947.008-1.947.008S-3.981.534-3.981,0c0-.438,0-1.917,0-1.917h1.96A1.988,1.988,0,0,1,0,0Z" fill="none" stroke="#000" stroke-linecap="round" stroke-linejoin="round" stroke-miterlimit="10" stroke-width="1.67"/>
            </g>
            <g id="g8450" transform="translate(42.364 -19.278)">
              <path id="path8452" d="M0,0H-27.728a.891.891,0,0,1-.891-.891V-17.553a.891.891,0,0,1,.891-.891H0a.891.891,0,0,1,.891.891V-.891A.891.891,0,0,1,0,0Z" fill="none" stroke="#000" stroke-linecap="round" stroke-linejoin="round" stroke-miterlimit="10" stroke-width="1.67"/>
            </g>
            <g id="g8454" transform="translate(13.745 -26.656)">
              <path id="path8456" d="M0,0H10.144a.922.922,0,0,1,.922.922V7.377" fill="none" stroke="#000" stroke-linecap="round" stroke-linejoin="round" stroke-miterlimit="10" stroke-width="1.67"/>
            </g>
            <g id="g8458" transform="translate(43.255 -26.656)">
              <path id="path8460" d="M0,0H-10.144a.922.922,0,0,0-.922.922V7.377" fill="none" stroke="#000" stroke-linecap="round" stroke-linejoin="round" stroke-miterlimit="10" stroke-width="1.67"/>
            </g>
            <g id="g8462" transform="translate(17.434 -26.656)">
              <path id="path8464" d="M0,0V-4.611a.922.922,0,0,1,.922-.922H21.21a.922.922,0,0,1,.922.922V0" fill="none" stroke="#000" stroke-linecap="round" stroke-linejoin="round" stroke-miterlimit="10" stroke-width="1.67"/>
            </g>
            <g id="g8466" transform="translate(28.5 -22.967)">
              <path id="path8468" d="M0,0V-1.844" fill="none" stroke="#000" stroke-linecap="round" stroke-linejoin="round" stroke-miterlimit="10" stroke-width="1.67"/>
            </g>
          </g>
        </g>
      </g>
    </g>
  </g>
</svg>
