<svg xmlns="http://www.w3.org/2000/svg" xmlns:xlink="http://www.w3.org/1999/xlink" width="108" height="108" viewBox="0 0 108 108">
  <defs>
    <filter id="Rectangle_411831" x="0" y="0" width="108" height="108" filterUnits="userSpaceOnUse">
      <feOffset dy="3" input="SourceAlpha"/>
      <feGaussianBlur stdDeviation="3" result="blur"/>
      <feFlood flood-opacity="0.161"/>
      <feComposite operator="in" in2="blur"/>
      <feComposite in="SourceGraphic"/>
    </filter>
    <clipPath id="clip-path">
      <rect id="Rectangle_436303" data-name="Rectangle 436303" width="57" height="58" transform="translate(235 -10986)" fill="#fff" stroke="#707070" stroke-width="1" opacity="0"/>
    </clipPath>
    <clipPath id="clip-path-2">
      <path id="path618" d="M0-57H57V0H0Z"/>
    </clipPath>
  </defs>
  <g id="Group_1260441" data-name="Group 1260441" transform="translate(-209.179 11008)">
    <g id="Group_1260438" data-name="Group 1260438" transform="translate(218.179 -11002)">
      <g transform="matrix(1, 0, 0, 1, -9, -6)" filter="url(#Rectangle_411831)">
        <g id="Rectangle_411831-2" data-name="Rectangle 411831" transform="translate(9 6)" fill="#e8de49" stroke="#fff" stroke-width="2">
          <path d="M5,0H58A32,32,0,0,1,90,32V85a5,5,0,0,1-5,5H32A32,32,0,0,1,0,58V5A5,5,0,0,1,5,0Z" stroke="none"/>
          <path d="M5,1H58A31,31,0,0,1,89,32V85a4,4,0,0,1-4,4H32A31,31,0,0,1,1,58V5A4,4,0,0,1,5,1Z" fill="none"/>
        </g>
      </g>
    </g>
    <g id="Mask_Group_1099723" data-name="Mask Group 1099723" clip-path="url(#clip-path)">
      <g id="g612" transform="translate(235 -10928.5)">
        <g id="g614">
          <g id="g616" clip-path="url(#clip-path-2)">
            <g id="g622" transform="translate(47.606 -11.605)">
              <path id="path624" d="M0,0A9.664,9.664,0,0,0,2.32,6.364H-32.651a1.106,1.106,0,0,1-.9-.462A10.1,10.1,0,0,1-35.224,0a10.1,10.1,0,0,1,1.67-5.9,1.106,1.106,0,0,1,.9-.462H2.32A9.664,9.664,0,0,0,0,0" fill="#fe3581"/>
            </g>
            <g id="g626" transform="translate(23.052 -17.969)">
              <path id="path628" d="M0,0-9.861,10.682a11.175,11.175,0,0,1-.807-4.317A10.1,10.1,0,0,1-9,.462,1.1,1.1,0,0,1-8.1,0Z" fill="#fe0364"/>
            </g>
            <g id="g630" transform="translate(17.173 -5.241)">
              <path id="path632" d="M0,0H-2.218a1.107,1.107,0,0,1-.9-.462,9.3,9.3,0,0,1-1.512-3.9" fill="none" stroke="#000" stroke-linecap="round" stroke-linejoin="round" stroke-miterlimit="10" stroke-width="1.67"/>
            </g>
            <g id="g634" transform="translate(51.454 -11.605)">
              <path id="path636" d="M0,0A9.664,9.664,0,0,0,2.32,6.364h-35.5S-35.224,4.3-35.224,0s2.041-6.364,2.041-6.364H2.32A9.664,9.664,0,0,0,0,0" fill="#e0d3ce"/>
            </g>
            <g id="g638" transform="translate(23.052 -17.969)">
              <path id="path640" d="M0,0-6.784,7.349c-.023-.314-.037-.642-.037-.984C-6.821,2.066-4.78,0-4.78,0Z" fill="#cdc0bb"/>
            </g>
            <g id="g642" transform="translate(51.454 -11.605)">
              <path id="path644" d="M0,0A9.663,9.663,0,0,0,2.32,6.364H-1.887A9.663,9.663,0,0,1-4.207,0a9.66,9.66,0,0,1,2.32-6.364H2.32A9.66,9.66,0,0,0,0,0" fill="#cdc0bb"/>
            </g>
            <g id="g646" transform="translate(51.455 -11.649)">
              <path id="path648" d="M0,0A9.66,9.66,0,0,1,2.319-6.321h-35.5S-35.224-4.254-35.224.044s2.041,6.364,2.041,6.364h35.5A9.251,9.251,0,0,1,.75,3.862" fill="none" stroke="#000" stroke-linecap="round" stroke-linejoin="round" stroke-miterlimit="10" stroke-width="1.67"/>
            </g>
            <g id="g650" transform="translate(56.164 -19.157)">
              <path id="path652" d="M0,0A1.842,1.842,0,0,1-.541,1.306a1.842,1.842,0,0,1-1.306.541h-35.3A1.847,1.847,0,0,1-38.99,0a1.844,1.844,0,0,1,.541-1.307,1.842,1.842,0,0,1,1.306-.541h35.3A1.848,1.848,0,0,1,0,0" fill="#fe3581"/>
            </g>
            <g id="g654" transform="translate(25.854 -21.005)">
              <path id="path656" d="M0,0-3.41,3.695H-6.833A1.847,1.847,0,0,1-8.68,1.848,1.844,1.844,0,0,1-8.139.541,1.842,1.842,0,0,1-6.833,0Z" fill="#fe0364"/>
            </g>
            <g id="g658" transform="translate(56.165 -19.158)">
              <path id="path660" d="M0,0A1.843,1.843,0,0,1-.541,1.306a1.845,1.845,0,0,1-1.308.542H-5.431a1.838,1.838,0,0,0,1.306-.542A1.843,1.843,0,0,0-3.585,0,1.847,1.847,0,0,0-5.431-1.847h3.583A1.848,1.848,0,0,1,0,0" fill="#fe0364"/>
            </g>
            <g id="g662" transform="translate(54.317 -17.31)">
              <path id="path664" d="M0,0H-35.3a1.847,1.847,0,0,1-1.847-1.847A1.847,1.847,0,0,1-35.3-3.695H0A1.847,1.847,0,0,1,1.847-1.847,1.847,1.847,0,0,1,0,0Z" fill="none" stroke="#000" stroke-linecap="round" stroke-linejoin="round" stroke-miterlimit="10" stroke-width="1.67"/>
            </g>
            <g id="g666" transform="translate(54.317 -2.206)">
              <path id="path668" d="M0,0H-35.3a1.847,1.847,0,0,1-1.847-1.847A1.847,1.847,0,0,1-35.3-3.695H0A1.847,1.847,0,0,1,1.847-1.847,1.847,1.847,0,0,1,0,0" fill="#fe3581"/>
            </g>
            <g id="g670" transform="translate(56.165 -4.053)">
              <path id="path672" d="M0,0A1.843,1.843,0,0,1-.541,1.306a1.849,1.849,0,0,1-1.308.541H-5.431a1.843,1.843,0,0,0,1.306-.541A1.843,1.843,0,0,0-3.585,0,1.847,1.847,0,0,0-5.431-1.847h3.583A1.848,1.848,0,0,1,0,0" fill="#fe0364"/>
            </g>
            <g id="g674" transform="translate(54.317 -2.206)">
              <path id="path676" d="M0,0H-35.3a1.847,1.847,0,0,1-1.847-1.847A1.847,1.847,0,0,1-35.3-3.695H0A1.847,1.847,0,0,1,1.847-1.847,1.847,1.847,0,0,1,0,0Z" fill="none" stroke="#000" stroke-linecap="round" stroke-linejoin="round" stroke-miterlimit="10" stroke-width="1.67"/>
            </g>
            <g id="g678" transform="translate(16.727 -13.515)">
              <path id="path680" d="M0,0H16.383" fill="none" stroke="#000" stroke-linecap="round" stroke-linejoin="round" stroke-miterlimit="10" stroke-width="1.67"/>
            </g>
            <g id="g682" transform="translate(39.99 -13.515)">
              <path id="path684" d="M0,0H11.335" fill="none" stroke="#000" stroke-linecap="round" stroke-linejoin="round" stroke-miterlimit="10" stroke-width="1.67"/>
            </g>
            <g id="g686" transform="translate(42.812 -9.722)">
              <path id="path688" d="M0,0H-19.452" fill="none" stroke="#000" stroke-linecap="round" stroke-linejoin="round" stroke-miterlimit="10" stroke-width="1.67"/>
            </g>
            <g id="g690" transform="translate(25.154 -23.529)">
              <path id="path692" d="M0,0-2.982-2.982l-20.3,18.742a3.215,3.215,0,0,0-.093,4.635,3.215,3.215,0,0,0,4.635-.093Z" fill="#883f2d"/>
            </g>
            <g id="g694" transform="translate(6.322 -3.133)">
              <path id="path696" d="M0,0A3.216,3.216,0,0,1-4.545,0,3.185,3.185,0,0,1-5.33-1.282a3.21,3.21,0,0,0,3.262-.781c.031-.031.062-.064.092-.1l18.742-20.3L18.832-20.4.09-.093C.06-.062.03-.03,0,0" fill="#6d3326"/>
            </g>
            <g id="g698" transform="translate(14.065 -19.028)">
              <path id="path700" d="M0,0-12.2,11.258a3.215,3.215,0,0,0-.093,4.635A3.215,3.215,0,0,0-7.653,15.8L11.089-4.5,8.106-7.483,2.892-2.67" fill="none" stroke="#000" stroke-linecap="round" stroke-linejoin="round" stroke-miterlimit="10" stroke-width="1.67"/>
            </g>
            <g id="g702" transform="translate(28.091 -33.578)">
              <path id="path704" d="M0,0-6.868,8.192-4.062,11,4.13,4.13Z" fill="#883f2d"/>
            </g>
            <g id="g706" transform="translate(28.091 -33.578)">
              <path id="path708" d="M0,0-2.219,2.647l.666.666a1.255,1.255,0,0,1,0,1.775L-5.762,9.3l1.7,1.7L4.13,4.13Z" fill="#6d3326"/>
            </g>
            <g id="g710" transform="translate(28.091 -33.578)">
              <path id="path712" d="M0,0-6.868,8.192-4.062,11,4.13,4.13Z" fill="none" stroke="#000" stroke-linecap="round" stroke-linejoin="round" stroke-miterlimit="10" stroke-width="1.67"/>
            </g>
            <g id="g714" transform="translate(22.264 -20.899)">
              <path id="path716" d="M0,0-2.723-2.723a2.016,2.016,0,0,1,0-2.851,2.016,2.016,0,0,1,2.851,0L2.851-2.851A2.016,2.016,0,0,1,2.851,0,2.016,2.016,0,0,1,0,0" fill="#bc5d4c"/>
            </g>
            <g id="g718" transform="translate(25.115 -20.899)">
              <path id="path720" d="M0,0A2.009,2.009,0,0,1-1.425.59,2.011,2.011,0,0,1-2.851,0L-4.915-2.064a2,2,0,0,0,1.426.589,2.005,2.005,0,0,0,1.426-.589,2.016,2.016,0,0,0,0-2.851L0-2.851A2.015,2.015,0,0,1,0,0" fill="#a54f3e"/>
            </g>
            <g id="g722" transform="translate(22.264 -20.899)">
              <path id="path724" d="M0,0-2.723-2.723a2.016,2.016,0,0,1,0-2.851,2.016,2.016,0,0,1,2.851,0L2.851-2.851A2.016,2.016,0,0,1,2.851,0,2.016,2.016,0,0,1,0,0Z" fill="none" stroke="#000" stroke-linecap="round" stroke-linejoin="round" stroke-miterlimit="10" stroke-width="1.67"/>
            </g>
            <g id="g726" transform="translate(28.204 -36.756)">
              <path id="path728" d="M0,0-6.048-6.048l9.495-9.495L9.495-9.495Z" fill="#bc5d4c"/>
            </g>
            <g id="g730" transform="translate(28.204 -36.756)">
              <path id="path732" d="M0,0-6.048-6.048l9.495-9.495L9.495-9.495Z" fill="none" stroke="#000" stroke-linecap="round" stroke-linejoin="round" stroke-miterlimit="10" stroke-width="1.67"/>
            </g>
            <g id="g734" transform="translate(35.398 -29.562)">
              <path id="path736" d="M0,0,6.048,6.048l9.495-9.495L9.495-9.495Z" fill="#a54f3e"/>
            </g>
            <g id="g738" transform="translate(35.398 -29.562)">
              <path id="path740" d="M0,0,6.048,6.048l9.495-9.495L9.495-9.495Z" fill="none" stroke="#000" stroke-linecap="round" stroke-linejoin="round" stroke-miterlimit="10" stroke-width="1.67"/>
            </g>
            <g id="g742" transform="translate(20.455 -40.724)">
              <path id="path744" d="M0,0-.21-.21a2.039,2.039,0,0,1,0-2.884L10.181-13.485a2.039,2.039,0,0,1,2.884,0l.21.21a2.039,2.039,0,0,1,0,2.884L2.884,0A2.039,2.039,0,0,1,0,0" fill="#883f2d"/>
            </g>
            <g id="g746" transform="translate(20.455 -40.724)">
              <path id="path748" d="M0,0-.21-.21a2.039,2.039,0,0,1,0-2.884L10.181-13.485a2.039,2.039,0,0,1,2.884,0l.21.21a2.039,2.039,0,0,1,0,2.884L2.884,0A2.039,2.039,0,0,1,0,0Z" fill="none" stroke="#000" stroke-linecap="round" stroke-linejoin="round" stroke-miterlimit="10" stroke-width="1.67"/>
            </g>
            <g id="g750" transform="translate(39.367 -21.812)">
              <path id="path752" d="M0,0,.21.21a2.04,2.04,0,0,0,2.884,0L13.485-10.181a2.039,2.039,0,0,0,0-2.884l-.21-.21a2.04,2.04,0,0,0-2.884,0L0-2.884A2.04,2.04,0,0,0,0,0" fill="#6d3326"/>
            </g>
            <g id="g754" transform="translate(39.367 -21.812)">
              <path id="path756" d="M0,0,.21.21a2.04,2.04,0,0,0,2.884,0L13.485-10.181a2.039,2.039,0,0,0,0-2.884l-.21-.21a2.04,2.04,0,0,0-2.884,0L0-2.884A2.04,2.04,0,0,0,0,0Z" fill="none" stroke="#000" stroke-linecap="round" stroke-linejoin="round" stroke-miterlimit="10" stroke-width="1.67"/>
            </g>
            <g id="g758" transform="translate(32.774 -27.34)">
              <path id="path760" d="M0,0-6.791-6.792l14.34-14.34L14.34-14.34Z" fill="#fdc266"/>
            </g>
            <g id="g762" transform="translate(43.677 -45.118)">
              <path id="path764" d="M0,0-14.34,14.34l3.437,3.437L3.437,3.437Z" fill="#fea714"/>
            </g>
            <g id="g766" transform="translate(42.296 -46.499)">
              <path id="path768" d="M0,0-1.973-1.973l-14.34,14.34,6.792,6.792L4.818,4.818,2.786,2.786" fill="none" stroke="#000" stroke-linecap="round" stroke-linejoin="round" stroke-miterlimit="10" stroke-width="1.67"/>
            </g>
            <g id="g770" transform="translate(40.353 -48.762)">
              <path id="path772" d="M0,0-1.664-.68a1.529,1.529,0,0,0-1.661.334L-15.006,11.336A1.529,1.529,0,0,0-15.34,13l.68,1.664A1.02,1.02,0,0,0-13,15L.335,1.665A1.02,1.02,0,0,0,0,0" fill="#883f2d"/>
            </g>
            <g id="g774" transform="translate(40.353 -48.762)">
              <path id="path776" d="M0,0-1.664-.68a1.529,1.529,0,0,0-1.661.334L-15.006,11.336A1.529,1.529,0,0,0-15.34,13l.68,1.664A1.02,1.02,0,0,0-13,15L.335,1.665A1.02,1.02,0,0,0,0,0Z" fill="none" stroke="#000" stroke-linecap="round" stroke-linejoin="round" stroke-miterlimit="10" stroke-width="1.67"/>
            </g>
            <g id="g778" transform="translate(47.404 -41.711)">
              <path id="path780" d="M0,0,.68,1.664a1.529,1.529,0,0,1-.334,1.66L-11.336,15.006A1.529,1.529,0,0,1-13,15.34l-1.664-.68A1.02,1.02,0,0,1-15,13L-1.665-.335A1.02,1.02,0,0,1,0,0" fill="#6d3326"/>
            </g>
            <g id="g782" transform="translate(47.404 -41.711)">
              <path id="path784" d="M0,0,.68,1.664a1.529,1.529,0,0,1-.334,1.66L-11.336,15.006A1.529,1.529,0,0,1-13,15.34l-1.664-.68A1.02,1.02,0,0,1-15,13L-1.665-.335A1.02,1.02,0,0,1,0,0Z" fill="none" stroke="#000" stroke-linecap="round" stroke-linejoin="round" stroke-miterlimit="10" stroke-width="1.67"/>
            </g>
          </g>
        </g>
      </g>
    </g>
  </g>
</svg>
